<?xml version="1.0" encoding="UTF-8"?>
<svg height="128px" viewBox="0 0 128 128" width="128px" xmlns="http://www.w3.org/2000/svg" xmlns:xlink="http://www.w3.org/1999/xlink">
    <filter id="a" height="100%" width="100%" x="0%" y="0%">
        <feColorMatrix color-interpolation-filters="sRGB" values="0 0 0 0 1 0 0 0 0 1 0 0 0 0 1 0 0 0 1 0"/>
    </filter>
    <linearGradient id="b" gradientTransform="matrix(1 0 0 0.866667 0 -130.133347)" gradientUnits="userSpaceOnUse" x1="11.999994" x2="116" y1="254" y2="254">
        <stop offset="0" stop-color="#20a4bc"/>
        <stop offset="0.0384616" stop-color="#57e3ce"/>
        <stop offset="0.0769231" stop-color="#31b5be"/>
        <stop offset="0.923077" stop-color="#31b5be"/>
        <stop offset="0.961538" stop-color="#57e3ce"/>
        <stop offset="1" stop-color="#20a4bc"/>
    </linearGradient>
    <linearGradient id="c" gradientUnits="userSpaceOnUse">
        <stop offset="0" stop-color="#77767b" stop-opacity="0.964706"/>
        <stop offset="0.384615" stop-color="#c0bfbc"/>
        <stop offset="0.769231" stop-color="#5e5c64"/>
        <stop offset="1" stop-color="#3d3846"/>
    </linearGradient>
    <linearGradient id="d" x1="16" x2="16" xlink:href="#c" y1="41.999973" y2="67.999969"/>
    <linearGradient id="e" gradientTransform="matrix(-1 0 0 1 128 9.999969)" x1="16" x2="16" xlink:href="#c" y1="32.000004" y2="58"/>
    <linearGradient id="f" gradientTransform="matrix(0 -1.055556 1.055556 0 -104.766602 126.567383)" gradientUnits="userSpaceOnUse" x1="82.011177" x2="118.011177" y1="194" y2="194">
        <stop offset="0" stop-color="#3cdec6"/>
        <stop offset="1" stop-color="#90ecde"/>
    </linearGradient>
    <clipPath id="g">
        <rect height="128" width="128"/>
    </clipPath>
    <clipPath id="h">
        <rect height="128" width="128"/>
    </clipPath>
    <mask id="i">
        <g filter="url(#a)">
            <g clip-path="url(#h)" filter="url(#a)">
                <g clip-path="url(#g)">
                    <path d="m 20 64 h 88 c 4.417969 0 8 3.582031 8 8 v 36 c 0 4.417969 -3.582031 8 -8 8 h -88 c -4.417969 0 -8 -3.582031 -8 -8 v -36 c 0 -4.417969 3.582031 -8 8 -8 z m 0 0" fill="url(#b)"/>
                    <path d="m 16 46 h 96 v 18 h -96 z m 0 0" fill="#5e5c64"/>
                    <path d="m 14 42 c -3.324219 0 -6 2.675781 -6 6 v 14 c 0 3.324219 2.675781 6 6 6 h 6 v -26 z m 0 0" fill="url(#d)"/>
                    <path d="m 114 42 c 3.324219 0 6 2.675781 6 6 v 14 c 0 3.324219 -2.675781 6 -6 6 h -6 v -26 z m 0 0" fill="url(#e)"/>
                    <path d="m 28 4 h 72 c 2.210938 0 4 1.789062 4 4 v 72 c 0 2.210938 -1.789062 4 -4 4 h -72 c -2.210938 0 -4 -1.789062 -4 -4 v -72 c 0 -2.210938 1.789062 -4 4 -4 z m 0 0" fill="#f6f5f4"/>
                    <path d="m 32 14 h 32 v 6 h -32 z m 0 0" fill="#77767b"/>
                    <path d="m 32 24 h 62 v 18 h -62 z m 0 0" fill="#c0bfbc"/>
                    <path d="m 32 34 h 44 v 12 h -44 z m 0 0" fill="#c0bfbc"/>
                    <path d="m 100.011719 5 c 10.492187 0 19 8.507812 19 19 s -8.507813 19 -19 19 c -10.492188 0 -19 -8.507812 -19 -19 s 8.507812 -19 19 -19 z m 0 0" fill="#31b5be"/>
                    <path d="m 22 56 h 84 v 20 h -84 z m 0 0" fill="#5e5c64"/>
                    <path d="m 20 60 h 88 c 4.417969 0 8 3.582031 8 8 v 34 c 0 4.417969 -3.582031 8 -8 8 h -88 c -4.417969 0 -8 -3.582031 -8 -8 v -34 c 0 -4.417969 3.582031 -8 8 -8 z m 0 0" fill="#57e3ce"/>
                    <path d="m 40 76 c 2.210938 0 4 1.789062 4 4 v 4 c 0 2.210938 -1.789062 4 -4 4 s -4 -1.789062 -4 -4 v -4 c 0 -2.210938 1.789062 -4 4 -4 z m 0 0" fill="#31b5be"/>
                    <path d="m 100 76 c 2.210938 0 4 1.789062 4 4 v 4 c 0 2.210938 -1.789062 4 -4 4 s -4 -1.789062 -4 -4 v -4 c 0 -2.210938 1.789062 -4 4 -4 z m 0 0" fill="#31b5be"/>
                    <path d="m 52 76 c 2.210938 0 4 1.789062 4 4 v 4 c 0 2.210938 -1.789062 4 -4 4 s -4 -1.789062 -4 -4 v -4 c 0 -2.210938 1.789062 -4 4 -4 z m 0 0" fill="#31b5be"/>
                    <path d="m 64 76 c 2.210938 0 4 1.789062 4 4 v 4 c 0 2.210938 -1.789062 4 -4 4 s -4 -1.789062 -4 -4 v -4 c 0 -2.210938 1.789062 -4 4 -4 z m 0 0" fill="#31b5be"/>
                    <path d="m 76 76 c 2.210938 0 4 1.789062 4 4 v 4 c 0 2.210938 -1.789062 4 -4 4 s -4 -1.789062 -4 -4 v -4 c 0 -2.210938 1.789062 -4 4 -4 z m 0 0" fill="#31b5be"/>
                    <path d="m 88 76 c 2.210938 0 4 1.789062 4 4 v 4 c 0 2.210938 -1.789062 4 -4 4 s -4 -1.789062 -4 -4 v -4 c 0 -2.210938 1.789062 -4 4 -4 z m 0 0" fill="#31b5be"/>
                    <path d="m 28 76 c 2.210938 0 4 1.789062 4 4 v 4 c 0 2.210938 -1.789062 4 -4 4 s -4 -1.789062 -4 -4 v -4 c 0 -2.210938 1.789062 -4 4 -4 z m 0 0" fill="#31b5be"/>
                    <path d="m 44 92 h 28 c 2.210938 0 4 1.789062 4 4 v 4 c 0 2.210938 -1.789062 4 -4 4 h -28 c -2.210938 0 -4 -1.789062 -4 -4 v -4 c 0 -2.210938 1.789062 -4 4 -4 z m 0 0" fill="#31b5be"/>
                    <path d="m 84 92 c 2.210938 0 4 1.789062 4 4 v 4 c 0 2.210938 -1.789062 4 -4 4 s -4 -1.789062 -4 -4 v -4 c 0 -2.210938 1.789062 -4 4 -4 z m 0 0" fill="#31b5be"/>
                    <path d="m 96 92 c 2.210938 0 4 1.789062 4 4 v 4 c 0 2.210938 -1.789062 4 -4 4 s -4 -1.789062 -4 -4 v -4 c 0 -2.210938 1.789062 -4 4 -4 z m 0 0" fill="#31b5be"/>
                    <path d="m 32 92 c 2.210938 0 4 1.789062 4 4 v 4 c 0 2.210938 -1.789062 4 -4 4 s -4 -1.789062 -4 -4 v -4 c 0 -2.210938 1.789062 -4 4 -4 z m 0 0" fill="#31b5be"/>
                    <path d="m 40 76 c 2.210938 0 4 1.789062 4 4 s -1.789062 4 -4 4 s -4 -1.789062 -4 -4 s 1.789062 -4 4 -4 z m 0 0" fill="#ffffff"/>
                    <path d="m 100 76 c 2.210938 0 4 1.789062 4 4 s -1.789062 4 -4 4 s -4 -1.789062 -4 -4 s 1.789062 -4 4 -4 z m 0 0" fill="#ffffff"/>
                    <path d="m 52 76 c 2.210938 0 4 1.789062 4 4 s -1.789062 4 -4 4 s -4 -1.789062 -4 -4 s 1.789062 -4 4 -4 z m 0 0" fill="#ffffff"/>
                    <path d="m 64 76 c 2.210938 0 4 1.789062 4 4 s -1.789062 4 -4 4 s -4 -1.789062 -4 -4 s 1.789062 -4 4 -4 z m 0 0" fill="#ffffff"/>
                    <path d="m 76 76 c 2.210938 0 4 1.789062 4 4 s -1.789062 4 -4 4 s -4 -1.789062 -4 -4 s 1.789062 -4 4 -4 z m 0 0" fill="#ffffff"/>
                    <path d="m 88 76 c 2.210938 0 4 1.789062 4 4 s -1.789062 4 -4 4 s -4 -1.789062 -4 -4 s 1.789062 -4 4 -4 z m 0 0" fill="#ffffff"/>
                    <path d="m 28 76 c 2.210938 0 4 1.789062 4 4 s -1.789062 4 -4 4 s -4 -1.789062 -4 -4 s 1.789062 -4 4 -4 z m 0 0" fill="#ffffff"/>
                    <path d="m 44 92 h 28 c 2.210938 0 4 1.789062 4 4 s -1.789062 4 -4 4 h -28 c -2.210938 0 -4 -1.789062 -4 -4 s 1.789062 -4 4 -4 z m 0 0" fill="#ffffff"/>
                    <path d="m 84 92 c 2.210938 0 4 1.789062 4 4 s -1.789062 4 -4 4 s -4 -1.789062 -4 -4 s 1.789062 -4 4 -4 z m 0 0" fill="#ffffff"/>
                    <path d="m 96 92 c 2.210938 0 4 1.789062 4 4 s -1.789062 4 -4 4 s -4 -1.789062 -4 -4 s 1.789062 -4 4 -4 z m 0 0" fill="#ffffff"/>
                    <path d="m 32 92 c 2.210938 0 4 1.789062 4 4 s -1.789062 4 -4 4 s -4 -1.789062 -4 -4 s 1.789062 -4 4 -4 z m 0 0" fill="#ffffff"/>
                    <path d="m 48 48 h 32 v 12 h -32 z m 0 0" fill="#f6f5f4"/>
                    <path d="m 12 68 h 104 v 4 h -104 z m 0 0" fill="#34c1ca"/>
                    <path d="m 100.011719 2 c 10.492187 0 19 8.507812 19 19 s -8.507813 19 -19 19 c -10.492188 0 -19 -8.507812 -19 -19 s 8.507812 -19 19 -19 z m 0 0" fill="url(#f)"/>
                    <path d="m 91 23 l 6.496094 6.496094 l 11.503906 -11.507813" fill="none" stroke="#31b5be" stroke-linecap="round" stroke-linejoin="round" stroke-miterlimit="2" stroke-width="4"/>
                    <path d="m 91 21 l 6.496094 6.496094 l 11.503906 -11.507813" fill="none" stroke="#ffffff" stroke-linecap="round" stroke-linejoin="round" stroke-miterlimit="2" stroke-width="4"/>
                </g>
            </g>
        </g>
    </mask>
    <mask id="j">
        <g filter="url(#a)">
            <rect fill-opacity="0.8" height="184.32" width="184.32" x="-28.16" y="-28.16"/>
        </g>
    </mask>
    <linearGradient id="k" gradientTransform="matrix(0 0.37 -0.98462 0 295.38501 -30.360001)" gradientUnits="userSpaceOnUse" x1="300" x2="428" y1="235" y2="235">
        <stop offset="0" stop-color="#f9f06b"/>
        <stop offset="1" stop-color="#f5c211"/>
    </linearGradient>
    <clipPath id="l">
        <rect height="128" width="128"/>
    </clipPath>
    <clipPath id="m">
        <rect height="128" width="128"/>
    </clipPath>
    <path d="m 20 64 h 88 c 4.417969 0 8 3.582031 8 8 v 36 c 0 4.417969 -3.582031 8 -8 8 h -88 c -4.417969 0 -8 -3.582031 -8 -8 v -36 c 0 -4.417969 3.582031 -8 8 -8 z m 0 0" fill="url(#b)"/>
    <path d="m 16 46 h 96 v 18 h -96 z m 0 0" fill="#5e5c64"/>
    <path d="m 14 42 c -3.324219 0 -6 2.675781 -6 6 v 14 c 0 3.324219 2.675781 6 6 6 h 6 v -26 z m 0 0" fill="url(#d)"/>
    <path d="m 114 42 c 3.324219 0 6 2.675781 6 6 v 14 c 0 3.324219 -2.675781 6 -6 6 h -6 v -26 z m 0 0" fill="url(#e)"/>
    <path d="m 28 4 h 72 c 2.210938 0 4 1.789062 4 4 v 72 c 0 2.210938 -1.789062 4 -4 4 h -72 c -2.210938 0 -4 -1.789062 -4 -4 v -72 c 0 -2.210938 1.789062 -4 4 -4 z m 0 0" fill="#f6f5f4"/>
    <path d="m 32 14 h 32 v 6 h -32 z m 0 0" fill="#77767b"/>
    <path d="m 32 24 h 62 v 18 h -62 z m 0 0" fill="#c0bfbc"/>
    <path d="m 32 34 h 44 v 12 h -44 z m 0 0" fill="#c0bfbc"/>
    <path d="m 100.011719 5 c 10.492187 0 19 8.507812 19 19 s -8.507813 19 -19 19 c -10.492188 0 -19 -8.507812 -19 -19 s 8.507812 -19 19 -19 z m 0 0" fill="#31b5be"/>
    <path d="m 22 56 h 84 v 20 h -84 z m 0 0" fill="#5e5c64"/>
    <path d="m 20 60 h 88 c 4.417969 0 8 3.582031 8 8 v 34 c 0 4.417969 -3.582031 8 -8 8 h -88 c -4.417969 0 -8 -3.582031 -8 -8 v -34 c 0 -4.417969 3.582031 -8 8 -8 z m 0 0" fill="#57e3ce"/>
    <g fill="#31b5be">
        <path d="m 40 76 c 2.210938 0 4 1.789062 4 4 v 4 c 0 2.210938 -1.789062 4 -4 4 s -4 -1.789062 -4 -4 v -4 c 0 -2.210938 1.789062 -4 4 -4 z m 0 0"/>
        <path d="m 100 76 c 2.210938 0 4 1.789062 4 4 v 4 c 0 2.210938 -1.789062 4 -4 4 s -4 -1.789062 -4 -4 v -4 c 0 -2.210938 1.789062 -4 4 -4 z m 0 0"/>
        <path d="m 52 76 c 2.210938 0 4 1.789062 4 4 v 4 c 0 2.210938 -1.789062 4 -4 4 s -4 -1.789062 -4 -4 v -4 c 0 -2.210938 1.789062 -4 4 -4 z m 0 0"/>
        <path d="m 64 76 c 2.210938 0 4 1.789062 4 4 v 4 c 0 2.210938 -1.789062 4 -4 4 s -4 -1.789062 -4 -4 v -4 c 0 -2.210938 1.789062 -4 4 -4 z m 0 0"/>
        <path d="m 76 76 c 2.210938 0 4 1.789062 4 4 v 4 c 0 2.210938 -1.789062 4 -4 4 s -4 -1.789062 -4 -4 v -4 c 0 -2.210938 1.789062 -4 4 -4 z m 0 0"/>
        <path d="m 88 76 c 2.210938 0 4 1.789062 4 4 v 4 c 0 2.210938 -1.789062 4 -4 4 s -4 -1.789062 -4 -4 v -4 c 0 -2.210938 1.789062 -4 4 -4 z m 0 0"/>
        <path d="m 28 76 c 2.210938 0 4 1.789062 4 4 v 4 c 0 2.210938 -1.789062 4 -4 4 s -4 -1.789062 -4 -4 v -4 c 0 -2.210938 1.789062 -4 4 -4 z m 0 0"/>
        <path d="m 44 92 h 28 c 2.210938 0 4 1.789062 4 4 v 4 c 0 2.210938 -1.789062 4 -4 4 h -28 c -2.210938 0 -4 -1.789062 -4 -4 v -4 c 0 -2.210938 1.789062 -4 4 -4 z m 0 0"/>
        <path d="m 84 92 c 2.210938 0 4 1.789062 4 4 v 4 c 0 2.210938 -1.789062 4 -4 4 s -4 -1.789062 -4 -4 v -4 c 0 -2.210938 1.789062 -4 4 -4 z m 0 0"/>
        <path d="m 96 92 c 2.210938 0 4 1.789062 4 4 v 4 c 0 2.210938 -1.789062 4 -4 4 s -4 -1.789062 -4 -4 v -4 c 0 -2.210938 1.789062 -4 4 -4 z m 0 0"/>
        <path d="m 32 92 c 2.210938 0 4 1.789062 4 4 v 4 c 0 2.210938 -1.789062 4 -4 4 s -4 -1.789062 -4 -4 v -4 c 0 -2.210938 1.789062 -4 4 -4 z m 0 0"/>
    </g>
    <path d="m 40 76 c 2.210938 0 4 1.789062 4 4 s -1.789062 4 -4 4 s -4 -1.789062 -4 -4 s 1.789062 -4 4 -4 z m 0 0" fill="#ffffff"/>
    <path d="m 100 76 c 2.210938 0 4 1.789062 4 4 s -1.789062 4 -4 4 s -4 -1.789062 -4 -4 s 1.789062 -4 4 -4 z m 0 0" fill="#ffffff"/>
    <path d="m 52 76 c 2.210938 0 4 1.789062 4 4 s -1.789062 4 -4 4 s -4 -1.789062 -4 -4 s 1.789062 -4 4 -4 z m 0 0" fill="#ffffff"/>
    <path d="m 64 76 c 2.210938 0 4 1.789062 4 4 s -1.789062 4 -4 4 s -4 -1.789062 -4 -4 s 1.789062 -4 4 -4 z m 0 0" fill="#ffffff"/>
    <path d="m 76 76 c 2.210938 0 4 1.789062 4 4 s -1.789062 4 -4 4 s -4 -1.789062 -4 -4 s 1.789062 -4 4 -4 z m 0 0" fill="#ffffff"/>
    <path d="m 88 76 c 2.210938 0 4 1.789062 4 4 s -1.789062 4 -4 4 s -4 -1.789062 -4 -4 s 1.789062 -4 4 -4 z m 0 0" fill="#ffffff"/>
    <path d="m 28 76 c 2.210938 0 4 1.789062 4 4 s -1.789062 4 -4 4 s -4 -1.789062 -4 -4 s 1.789062 -4 4 -4 z m 0 0" fill="#ffffff"/>
    <path d="m 44 92 h 28 c 2.210938 0 4 1.789062 4 4 s -1.789062 4 -4 4 h -28 c -2.210938 0 -4 -1.789062 -4 -4 s 1.789062 -4 4 -4 z m 0 0" fill="#ffffff"/>
    <path d="m 84 92 c 2.210938 0 4 1.789062 4 4 s -1.789062 4 -4 4 s -4 -1.789062 -4 -4 s 1.789062 -4 4 -4 z m 0 0" fill="#ffffff"/>
    <path d="m 96 92 c 2.210938 0 4 1.789062 4 4 s -1.789062 4 -4 4 s -4 -1.789062 -4 -4 s 1.789062 -4 4 -4 z m 0 0" fill="#ffffff"/>
    <path d="m 32 92 c 2.210938 0 4 1.789062 4 4 s -1.789062 4 -4 4 s -4 -1.789062 -4 -4 s 1.789062 -4 4 -4 z m 0 0" fill="#ffffff"/>
    <path d="m 48 48 h 32 v 12 h -32 z m 0 0" fill="#f6f5f4"/>
    <path d="m 12 68 h 104 v 4 h -104 z m 0 0" fill="#34c1ca"/>
    <path d="m 100.011719 2 c 10.492187 0 19 8.507812 19 19 s -8.507813 19 -19 19 c -10.492188 0 -19 -8.507812 -19 -19 s 8.507812 -19 19 -19 z m 0 0" fill="url(#f)"/>
    <path d="m 91 23 l 6.496094 6.496094 l 11.503906 -11.507813" fill="none" stroke="#31b5be" stroke-linecap="round" stroke-linejoin="round" stroke-miterlimit="2" stroke-width="4"/>
    <path d="m 91 21 l 6.496094 6.496094 l 11.503906 -11.507813" fill="none" stroke="#ffffff" stroke-linecap="round" stroke-linejoin="round" stroke-miterlimit="2" stroke-width="4"/>
    <g mask="url(#i)">
        <g clip-path="url(#m)">
            <g mask="url(#j)">
                <g clip-path="url(#l)">
                    <path d="m 128 80.640625 v 47.359375 h -128 v -47.359375 z m 0 0" fill="url(#k)"/>
                    <path d="m 13.308594 80.640625 l 47.355468 47.359375 h 21.214844 l -47.359375 -47.359375 z m 42.421875 0 l 47.363281 47.359375 h 21.214844 l -47.363282 -47.359375 z m 42.429687 0 l 29.839844 29.839844 v -21.210938 l -8.628906 -8.628906 z m -98.160156 7.90625 v 21.214844 l 18.238281 18.238281 h 21.214844 z m 0 0"/>
                </g>
            </g>
        </g>
    </g>
</svg>
