<?xml version="1.0" encoding="UTF-8"?>
<svg height="16px" viewBox="0 0 16 16" width="16px" xmlns="http://www.w3.org/2000/svg">
    <path d="m 6.039062 4 h -2.039062 v 2 h 2.210938 c -0.136719 -0.488281 -0.210938 -0.992188 -0.210938 -1.5 c 0.003906 -0.167969 0.015625 -0.332031 0.039062 -0.5 z m 0 0"/>
    <path d="m 6.613281 7 h -2.613281 v 2 h 4.355469 c -0.734375 -0.515625 -1.332031 -1.199219 -1.742188 -2 z m 0 0"/>
    <path d="m 8.355469 0 h -3.355469 c -2.199219 0 -4 1.800781 -4 4 v 8 c 0 2.199219 1.800781 4 4 4 h 6 c 2.199219 0 4 -1.800781 4 -4 v -3.269531 c -0.585938 0.488281 -1.265625 0.847656 -2 1.058593 v 2.210938 c 0 1.125 -0.875 2 -2 2 h -6 c -1.125 0 -2 -0.875 -2 -2 v -8 c 0 -1.125 0.875 -2 2 -2 h 1.613281 c 0.410157 -0.800781 1.007813 -1.484375 1.742188 -2 z m 0 0"/>
    <path d="m 11.5 0 c -2.484375 0 -4.5 2.015625 -4.5 4.5 s 2.015625 4.5 4.5 4.5 s 4.5 -2.015625 4.5 -4.5 c 0 -0.699219 -0.164062 -1.390625 -0.480469 -2.015625 l -3.988281 4.042969 c -0.136719 0.140625 -0.328125 0.222656 -0.53125 0.222656 c -0.199219 0 -0.390625 -0.078125 -0.53125 -0.21875 l -2 -2 c -0.140625 -0.140625 -0.21875 -0.332031 -0.21875 -0.53125 s 0.078125 -0.390625 0.21875 -0.53125 s 0.332031 -0.21875 0.53125 -0.21875 s 0.390625 0.078125 0.53125 0.21875 l 1.46875 1.46875 l 3.621094 -3.675781 c -0.839844 -0.808594 -1.957032 -1.261719 -3.121094 -1.261719 z m 0 0"/>
    <path d="m 4 10 h 8 v 2 h -8 z m 0 0"/>
</svg>
